<svg width="828" height="138" viewBox="0 0 828 138" fill="none" xmlns="http://www.w3.org/2000/svg">
<path fill-rule="evenodd" clip-rule="evenodd" d="M292.724 67.0721L254 0L215.276 67.0721C211.186 73.8664 208.834 81.8251 208.834 90.3333C208.834 115.278 229.055 135.5 254 135.5C278.945 135.5 299.167 115.278 299.167 90.3333C299.167 81.8251 296.814 73.8664 292.724 67.0721Z" fill="#FFC400"/>
<path d="M50.5627 137.886C40.0786 137.886 31.0543 135.763 23.4898 131.516C15.9695 127.225 10.1745 121.165 6.10469 113.335C2.0349 105.461 0 96.1488 0 85.3993C0 74.9151 2.0349 65.7139 6.10469 57.7955C10.1745 49.8771 15.9032 43.706 23.2907 39.2823C30.7225 34.8587 39.4372 32.6468 49.4347 32.6468C56.1587 32.6468 62.4182 33.7306 68.2133 35.8982C74.0525 38.0216 79.1398 41.2288 83.475 45.5197C87.8544 49.8107 91.2607 55.2076 93.6937 61.7104C96.1267 68.169 97.3432 75.7335 97.3432 84.404V92.1675H11.2804V74.6497H70.7348C70.7348 70.5799 69.85 66.9746 68.0806 63.8338C66.3111 60.693 63.8559 58.2378 60.7151 56.4684C57.6185 54.6547 54.0132 53.7478 49.8992 53.7478C45.6082 53.7478 41.8038 54.7431 38.4861 56.7338C35.2126 58.6802 32.6468 61.3123 30.7889 64.6301C28.9309 67.9036 27.9798 71.5531 27.9356 75.5787V92.2339C27.9356 97.2769 28.8646 101.634 30.7225 105.306C32.6247 108.978 35.301 111.809 38.7515 113.799C42.202 115.79 46.2939 116.785 51.0272 116.785C54.1681 116.785 57.0434 116.343 59.6534 115.458C62.2634 114.574 64.4974 113.246 66.3553 111.477C68.2133 109.707 69.6288 107.54 70.6021 104.974L96.746 106.699C95.4189 112.981 92.6984 118.466 88.5843 123.155C84.5145 127.8 79.2504 131.428 72.7918 134.038C66.3774 136.603 58.9678 137.886 50.5627 137.886Z" fill="#0E9D03"/>
<path d="M152.498 137.886C142.058 137.886 133.078 135.674 125.558 131.251C118.081 126.783 112.331 120.59 108.305 112.671C104.324 104.753 102.333 95.6401 102.333 85.3329C102.333 74.893 104.346 65.736 108.371 57.8618C112.441 49.9434 118.214 43.7724 125.69 39.3487C133.166 34.8808 142.058 32.6468 152.365 32.6468C161.257 32.6468 169.042 34.2615 175.722 37.4907C182.402 40.72 187.688 45.2543 191.581 51.0936C195.474 56.9329 197.619 63.7896 198.018 71.6637H171.343C170.591 66.5765 168.6 62.4846 165.371 59.388C162.186 56.2472 158.005 54.6768 152.83 54.6768C148.45 54.6768 144.624 55.8712 141.35 58.26C138.121 60.6045 135.599 64.0329 133.786 68.545C131.972 73.0572 131.065 78.5205 131.065 84.9348C131.065 91.4376 131.95 96.9672 133.719 101.524C135.533 106.08 138.077 109.553 141.35 111.941C144.624 114.33 148.45 115.525 152.83 115.525C156.059 115.525 158.956 114.861 161.522 113.534C164.132 112.207 166.278 110.283 167.959 107.761C169.684 105.195 170.812 102.121 171.343 98.5376H198.018C197.575 106.323 195.452 113.18 191.647 119.108C187.887 124.991 182.689 129.592 176.054 132.91C169.418 136.227 161.566 137.886 152.498 137.886Z" fill="#0E9D03"/>
<path d="M340.293 0V135.896H312.026V0H340.293Z" fill="#0E9D03"/>
<path d="M381.862 0V135.896H353.594V0H381.862Z" fill="#0E9D03"/>
<path d="M441.611 137.886C431.127 137.886 422.103 135.763 414.538 131.516C407.018 127.225 401.223 121.165 397.153 113.335C393.083 105.461 391.048 96.1488 391.048 85.3993C391.048 74.9151 393.083 65.7139 397.153 57.7955C401.223 49.8771 406.952 43.706 414.339 39.2823C421.771 34.8587 430.486 32.6468 440.483 32.6468C447.207 32.6468 453.467 33.7306 459.262 35.8982C465.101 38.0216 470.188 41.2288 474.523 45.5197C478.903 49.8107 482.309 55.2076 484.742 61.7104C487.175 68.169 488.392 75.7335 488.392 84.404V92.1675H402.329V74.6497H461.783C461.783 70.5799 460.898 66.9746 459.129 63.8338C457.359 60.693 454.904 58.2378 451.764 56.4684C448.667 54.6547 445.062 53.7478 440.948 53.7478C436.657 53.7478 432.852 54.7431 429.535 56.7338C426.261 58.6802 423.695 61.3123 421.837 64.6301C419.979 67.9036 419.028 71.5531 418.984 75.5787V92.2339C418.984 97.2769 419.913 101.634 421.771 105.306C423.673 108.978 426.349 111.809 429.8 113.799C433.25 115.79 437.342 116.785 442.076 116.785C445.216 116.785 448.092 116.343 450.702 115.458C453.312 114.574 455.546 113.246 457.404 111.477C459.262 109.707 460.677 107.54 461.65 104.974L487.794 106.699C486.467 112.981 483.747 118.466 479.633 123.155C475.563 127.8 470.299 131.428 463.84 134.038C457.426 136.603 450.016 137.886 441.611 137.886Z" fill="#0E9D03"/>
<path d="M543.546 137.886C533.106 137.886 524.126 135.674 516.606 131.251C509.13 126.783 503.379 120.59 499.354 112.671C495.372 104.753 493.382 95.6401 493.382 85.3329C493.382 74.893 495.394 65.736 499.42 57.8618C503.49 49.9434 509.263 43.7724 516.739 39.3487C524.215 34.8808 533.106 32.6468 543.414 32.6468C552.305 32.6468 560.091 34.2615 566.771 37.4907C573.45 40.72 578.737 45.2543 582.629 51.0936C586.522 56.9329 588.668 63.7896 589.066 71.6637H562.391C561.639 66.5765 559.648 62.4846 556.419 59.388C553.234 56.2472 549.054 54.6768 543.878 54.6768C539.499 54.6768 535.672 55.8712 532.398 58.26C529.169 60.6045 526.648 64.0329 524.834 68.545C523.02 73.0572 522.113 78.5205 522.113 84.9348C522.113 91.4376 522.998 96.9672 524.768 101.524C526.581 106.08 529.125 109.553 532.398 111.941C535.672 114.33 539.499 115.525 543.878 115.525C547.107 115.525 550.005 114.861 552.571 113.534C555.181 112.207 557.326 110.283 559.007 107.761C560.732 105.195 561.86 102.121 562.391 98.5376H589.066C588.624 106.323 586.5 113.18 582.696 119.108C578.936 124.991 573.738 129.592 567.102 132.91C560.467 136.227 552.615 137.886 543.546 137.886Z" fill="#0E9D03"/>
<path d="M652.034 33.9739V55.2076H590.655V33.9739H652.034ZM604.59 9.55517H632.857V104.576C632.857 107.186 633.255 109.221 634.052 110.681C634.848 112.096 635.954 113.092 637.369 113.667C638.829 114.242 640.51 114.529 642.412 114.529C643.739 114.529 645.067 114.419 646.394 114.197C647.721 113.932 648.738 113.733 649.446 113.6L653.892 134.635C652.476 135.077 650.486 135.586 647.92 136.161C645.354 136.78 642.235 137.156 638.564 137.289C631.751 137.555 625.779 136.648 620.648 134.569C615.561 132.489 611.601 129.26 608.77 124.881C605.939 120.501 604.546 114.972 604.59 108.292V9.55517Z" fill="#0E9D03"/>
<path d="M706.06 137.886C695.753 137.886 686.839 135.697 679.319 131.317C671.843 126.893 666.07 120.745 662 112.87C657.931 104.952 655.896 95.7728 655.896 85.3329C655.896 74.8046 657.931 65.6033 662 57.7291C666.07 49.8107 671.843 43.6618 679.319 39.2823C686.839 34.8587 695.753 32.6468 706.06 32.6468C716.367 32.6468 725.259 34.8587 732.735 39.2823C740.255 43.6618 746.05 49.8107 750.12 57.7291C754.19 65.6033 756.225 74.8046 756.225 85.3329C756.225 95.7728 754.19 104.952 750.12 112.87C746.05 120.745 740.255 126.893 732.735 131.317C725.259 135.697 716.367 137.886 706.06 137.886ZM706.193 115.989C710.882 115.989 714.797 114.662 717.938 112.008C721.079 109.309 723.445 105.638 725.038 100.993C726.675 96.3479 727.493 91.0616 727.493 85.1339C727.493 79.2061 726.675 73.9198 725.038 69.2749C723.445 64.6301 721.079 60.9584 717.938 58.26C714.797 55.5615 710.882 54.2123 706.193 54.2123C701.46 54.2123 697.478 55.5615 694.249 58.26C691.064 60.9584 688.653 64.6301 687.016 69.2749C685.424 73.9198 684.628 79.2061 684.628 85.1339C684.628 91.0616 685.424 96.3479 687.016 100.993C688.653 105.638 691.064 109.309 694.249 112.008C697.478 114.662 701.46 115.989 706.193 115.989Z" fill="#0E9D03"/>
<path d="M765.263 135.896V33.9739H792.667V51.7571H793.729C795.587 45.4313 798.706 40.6537 803.085 37.4244C807.465 34.1509 812.508 32.5141 818.214 32.5141C819.63 32.5141 821.156 32.6026 822.793 32.7795C824.429 32.9565 825.867 33.1998 827.106 33.5094V58.5917C825.779 58.1936 823.943 57.8397 821.598 57.5301C819.254 57.2204 817.108 57.0656 815.162 57.0656C811.003 57.0656 807.288 57.9724 804.014 59.7861C800.785 61.5556 798.219 64.0329 796.317 67.2179C794.459 70.403 793.53 74.0747 793.53 78.2329V135.896H765.263Z" fill="#0E9D03"/>
</svg>
